<?xml version="1.0" encoding="UTF-8" standalone="no"?>
<!DOCTYPE svg PUBLIC "-//W3C//DTD SVG 1.1//EN"
 "http://www.w3.org/Graphics/SVG/1.1/DTD/svg11.dtd">
<!-- Generated by graphviz version 2.40.1 (20161225.0304)
 -->
<!-- Title: public.posts Pages: 1 -->
<svg width="1289pt" height="899pt"
 viewBox="0.00 0.00 1289.00 899.00" xmlns="http://www.w3.org/2000/svg" xmlns:xlink="http://www.w3.org/1999/xlink">
<g id="graph0" class="graph" transform="scale(1 1) rotate(0) translate(4 895)">
<title>public.posts</title>
<polygon fill="#ffffff" stroke="transparent" points="-4,4 -4,-895 1285,-895 1285,4 -4,4"/>
<!-- public.posts -->
<g id="node1" class="node">
<title>public.posts</title>
<polygon fill="#efefef" stroke="transparent" points="500,-532.5 500,-567.5 783,-567.5 783,-532.5 500,-532.5"/>
<polygon fill="none" stroke="#000000" points="500,-532.5 500,-567.5 783,-567.5 783,-532.5 500,-532.5"/>
<text text-anchor="start" x="530.2041" y="-545.3" font-family="Arial Bold" font-size="18.00" fill="#000000">public.posts</text>
<text text-anchor="start" x="625.2279" y="-545.3" font-family="Arial" font-size="14.00" fill="#000000">    </text>
<text text-anchor="start" x="659.4327" y="-545.3" font-family="Arial" font-size="14.00" fill="#666666">[BASE TABLE]</text>
<polygon fill="none" stroke="#000000" points="500,-502.5 500,-532.5 783,-532.5 783,-502.5 500,-502.5"/>
<text text-anchor="start" x="507" y="-513.9" font-family="Arial" font-size="14.00" fill="#000000">postId </text>
<text text-anchor="start" x="549.0196" y="-513.9" font-family="Arial" font-size="14.00" fill="#666666">[integer]</text>
<polygon fill="none" stroke="#000000" points="500,-472.5 500,-502.5 783,-502.5 783,-472.5 500,-472.5"/>
<text text-anchor="start" x="507" y="-483.9" font-family="Arial" font-size="14.00" fill="#000000">title </text>
<text text-anchor="start" x="532.6676" y="-483.9" font-family="Arial" font-size="14.00" fill="#666666">[text]</text>
<polygon fill="none" stroke="#000000" points="500,-442.5 500,-472.5 783,-472.5 783,-442.5 500,-442.5"/>
<text text-anchor="start" x="507" y="-453.9" font-family="Arial" font-size="14.00" fill="#000000">content </text>
<text text-anchor="start" x="556.8022" y="-453.9" font-family="Arial" font-size="14.00" fill="#666666">[text]</text>
<polygon fill="none" stroke="#000000" points="500,-412.5 500,-442.5 783,-442.5 783,-412.5 500,-412.5"/>
<text text-anchor="start" x="507" y="-423.9" font-family="Arial" font-size="14.00" fill="#000000">authorId </text>
<text text-anchor="start" x="562.2454" y="-423.9" font-family="Arial" font-size="14.00" fill="#666666">[text]</text>
<polygon fill="none" stroke="#000000" points="500,-382.5 500,-412.5 783,-412.5 783,-382.5 500,-382.5"/>
<text text-anchor="start" x="507" y="-393.9" font-family="Arial" font-size="14.00" fill="#000000">createdAt </text>
<text text-anchor="start" x="570.7994" y="-393.9" font-family="Arial" font-size="14.00" fill="#666666">[timestamp(3) without time zone]</text>
<polygon fill="none" stroke="#000000" points="500,-352.5 500,-382.5 783,-382.5 783,-352.5 500,-352.5"/>
<text text-anchor="start" x="506.526" y="-363.9" font-family="Arial" font-size="14.00" fill="#000000">updatedAt </text>
<text text-anchor="start" x="574.23" y="-363.9" font-family="Arial" font-size="14.00" fill="#666666">[timestamp(3) without time zone]</text>
<polygon fill="none" stroke="#000000" stroke-width="3" points="498,-351.5 498,-569.5 784,-569.5 784,-351.5 498,-351.5"/>
</g>
<!-- public.users -->
<g id="node3" class="node">
<title>public.users</title>
<polygon fill="#efefef" stroke="transparent" points="485,-192.5 485,-227.5 799,-227.5 799,-192.5 485,-192.5"/>
<polygon fill="none" stroke="#000000" points="485,-192.5 485,-227.5 799,-227.5 799,-192.5 485,-192.5"/>
<text text-anchor="start" x="530.2091" y="-205.3" font-family="Arial Bold" font-size="18.00" fill="#000000">public.users</text>
<text text-anchor="start" x="626.2229" y="-205.3" font-family="Arial" font-size="14.00" fill="#000000">    </text>
<text text-anchor="start" x="660.4277" y="-205.3" font-family="Arial" font-size="14.00" fill="#666666">[BASE TABLE]</text>
<polygon fill="none" stroke="#000000" points="485,-162.5 485,-192.5 799,-192.5 799,-162.5 485,-162.5"/>
<text text-anchor="start" x="492" y="-173.9" font-family="Arial" font-size="14.00" fill="#000000">userId    </text>
<text text-anchor="start" x="565.1038" y="-173.9" font-family="Arial" font-size="14.00" fill="#666666">[text]</text>
<polygon fill="none" stroke="#000000" points="485,-132.5 485,-162.5 799,-162.5 799,-132.5 485,-132.5"/>
<text text-anchor="start" x="492" y="-143.9" font-family="Arial" font-size="14.00" fill="#000000">userName    </text>
<text text-anchor="start" x="590.763" y="-143.9" font-family="Arial" font-size="14.00" fill="#666666">[text]</text>
<polygon fill="none" stroke="#000000" points="485,-102.5 485,-132.5 799,-132.5 799,-102.5 485,-102.5"/>
<text text-anchor="start" x="492" y="-113.9" font-family="Arial" font-size="14.00" fill="#000000">imageUrl    </text>
<text text-anchor="start" x="582.1936" y="-113.9" font-family="Arial" font-size="14.00" fill="#666666">[varchar(256)]</text>
<polygon fill="none" stroke="#000000" points="485,-72.5 485,-102.5 799,-102.5 799,-72.5 485,-72.5"/>
<text text-anchor="start" x="492" y="-83.9" font-family="Arial" font-size="14.00" fill="#000000">createdAt    </text>
<text text-anchor="start" x="586.1136" y="-83.9" font-family="Arial" font-size="14.00" fill="#666666">[timestamp(3) without time zone]</text>
<polygon fill="none" stroke="#000000" points="485,-42.5 485,-72.5 799,-72.5 799,-42.5 485,-42.5"/>
<text text-anchor="start" x="491.8689" y="-53.9" font-family="Arial" font-size="14.00" fill="#000000">updatedAt    </text>
<text text-anchor="start" x="589.8871" y="-53.9" font-family="Arial" font-size="14.00" fill="#666666">[timestamp(3) without time zone]</text>
</g>
<!-- public.posts&#45;&gt;public.users -->
<g id="edge2" class="edge">
<title>public.posts:authorId&#45;&gt;public.users:userId</title>
<path fill="none" stroke="#000000" d="M792.9968,-426.4111C834.0088,-416.6931 816.0975,-344.3365 783,-307 694.5042,-207.17 573.4958,-370.83 485,-271 457.4341,-239.9036 443.4444,-177.5 485,-177.5"/>
<polygon fill="#000000" stroke="#000000" points="792.9412,-426.4171 782.5127,-423.0265 787.9706,-426.9585 783,-427.5 783,-427.5 783,-427.5 787.9706,-426.9585 783.4873,-431.9735 792.9412,-426.4171 792.9412,-426.4171"/>
<text text-anchor="start" x="789.892" y="-437.5" font-family="Arial" font-size="10.00" fill="#000000">FOREIGN KEY (&quot;authorId&quot;) REFERENCES users(&quot;userId&quot;) ON UPDATE CASCADE ON DELETE CASCADE</text>
</g>
<!-- public.bookmarks -->
<g id="node2" class="node">
<title>public.bookmarks</title>
<polygon fill="#efefef" stroke="transparent" points="487,-812.5 487,-847.5 797,-847.5 797,-812.5 487,-812.5"/>
<polygon fill="none" stroke="#000000" points="487,-812.5 487,-847.5 797,-847.5 797,-812.5 487,-812.5"/>
<text text-anchor="start" x="508.2068" y="-825.3" font-family="Arial Bold" font-size="18.00" fill="#000000">public.bookmarks</text>
<text text-anchor="start" x="648.2252" y="-825.3" font-family="Arial" font-size="14.00" fill="#000000">    </text>
<text text-anchor="start" x="682.43" y="-825.3" font-family="Arial" font-size="14.00" fill="#666666">[BASE TABLE]</text>
<polygon fill="none" stroke="#000000" points="487,-782.5 487,-812.5 797,-812.5 797,-782.5 487,-782.5"/>
<text text-anchor="start" x="494" y="-793.9" font-family="Arial" font-size="14.00" fill="#000000">bookmarkId    </text>
<text text-anchor="start" x="601.3296" y="-793.9" font-family="Arial" font-size="14.00" fill="#666666">[integer]</text>
<polygon fill="none" stroke="#000000" points="487,-752.5 487,-782.5 797,-782.5 797,-752.5 487,-752.5"/>
<text text-anchor="start" x="494" y="-763.9" font-family="Arial" font-size="14.00" fill="#000000">postId    </text>
<text text-anchor="start" x="566.3338" y="-763.9" font-family="Arial" font-size="14.00" fill="#666666">[integer]</text>
<polygon fill="none" stroke="#000000" points="487,-722.5 487,-752.5 797,-752.5 797,-722.5 487,-722.5"/>
<text text-anchor="start" x="494" y="-733.9" font-family="Arial" font-size="14.00" fill="#000000">userId    </text>
<text text-anchor="start" x="567.1038" y="-733.9" font-family="Arial" font-size="14.00" fill="#666666">[text]</text>
<polygon fill="none" stroke="#000000" points="487,-692.5 487,-722.5 797,-722.5 797,-692.5 487,-692.5"/>
<text text-anchor="start" x="493.8212" y="-703.9" font-family="Arial" font-size="14.00" fill="#000000">createdAt    </text>
<text text-anchor="start" x="587.9348" y="-703.9" font-family="Arial" font-size="14.00" fill="#666666">[timestamp(3) without time zone]</text>
</g>
<!-- public.bookmarks&#45;&gt;public.posts -->
<g id="edge1" class="edge">
<title>public.bookmarks:postId&#45;&gt;public.posts:postId</title>
<path fill="none" stroke="#000000" d="M477.0015,-766.378C437.3365,-756.6683 454.8087,-686.3436 487,-650 574.8705,-550.795 695.1295,-713.205 783,-614 811.4374,-581.8944 825.8889,-517.5 783,-517.5"/>
<polygon fill="#000000" stroke="#000000" points="477.0624,-766.3848 486.4981,-771.9719 482.0312,-766.9424 487,-767.5 487,-767.5 487,-767.5 482.0312,-766.9424 487.5019,-763.0281 477.0624,-766.3848 477.0624,-766.3848"/>
<text text-anchor="start" x="7.441" y="-777.5" font-family="Arial" font-size="10.00" fill="#000000">FOREIGN KEY (&quot;postId&quot;) REFERENCES posts(&quot;postId&quot;) ON UPDATE CASCADE ON DELETE SET NULL</text>
</g>
</g>
</svg>
