<?xml version="1.0" encoding="UTF-8" standalone="no"?>
<!DOCTYPE svg PUBLIC "-//W3C//DTD SVG 1.1//EN"
 "http://www.w3.org/Graphics/SVG/1.1/DTD/svg11.dtd">
<!-- Generated by graphviz version 2.40.1 (20161225.0304)
 -->
<!-- Title: public.bookmarks Pages: 1 -->
<svg width="1265pt" height="592pt"
 viewBox="0.00 0.00 1265.00 592.00" xmlns="http://www.w3.org/2000/svg" xmlns:xlink="http://www.w3.org/1999/xlink">
<g id="graph0" class="graph" transform="scale(1 1) rotate(0) translate(4 588)">
<title>public.bookmarks</title>
<polygon fill="#ffffff" stroke="transparent" points="-4,4 -4,-588 1261,-588 1261,4 -4,4"/>
<!-- public.bookmarks -->
<g id="node1" class="node">
<title>public.bookmarks</title>
<polygon fill="#efefef" stroke="transparent" points="487,-502.5 487,-537.5 768,-537.5 768,-502.5 487,-502.5"/>
<polygon fill="none" stroke="#000000" points="487,-502.5 487,-537.5 768,-537.5 768,-502.5 487,-502.5"/>
<text text-anchor="start" x="493.7068" y="-515.3" font-family="Arial Bold" font-size="18.00" fill="#000000">public.bookmarks</text>
<text text-anchor="start" x="633.7252" y="-515.3" font-family="Arial" font-size="14.00" fill="#000000">    </text>
<text text-anchor="start" x="667.93" y="-515.3" font-family="Arial" font-size="14.00" fill="#666666">[BASE TABLE]</text>
<polygon fill="none" stroke="#000000" points="487,-472.5 487,-502.5 768,-502.5 768,-472.5 487,-472.5"/>
<text text-anchor="start" x="494" y="-483.9" font-family="Arial" font-size="14.00" fill="#000000">bookmarkId </text>
<text text-anchor="start" x="571.0154" y="-483.9" font-family="Arial" font-size="14.00" fill="#666666">[integer]</text>
<polygon fill="none" stroke="#000000" points="487,-442.5 487,-472.5 768,-472.5 768,-442.5 487,-442.5"/>
<text text-anchor="start" x="494" y="-453.9" font-family="Arial" font-size="14.00" fill="#000000">postId </text>
<text text-anchor="start" x="536.0196" y="-453.9" font-family="Arial" font-size="14.00" fill="#666666">[integer]</text>
<polygon fill="none" stroke="#000000" points="487,-412.5 487,-442.5 768,-442.5 768,-412.5 487,-412.5"/>
<text text-anchor="start" x="494" y="-423.9" font-family="Arial" font-size="14.00" fill="#000000">userId </text>
<text text-anchor="start" x="536.7896" y="-423.9" font-family="Arial" font-size="14.00" fill="#666666">[text]</text>
<polygon fill="none" stroke="#000000" points="487,-382.5 487,-412.5 768,-412.5 768,-382.5 487,-382.5"/>
<text text-anchor="start" x="494" y="-393.9" font-family="Arial" font-size="14.00" fill="#000000">createdAt </text>
<text text-anchor="start" x="557.7994" y="-393.9" font-family="Arial" font-size="14.00" fill="#666666">[timestamp(3) without time zone]</text>
<polygon fill="none" stroke="#000000" stroke-width="3" points="485,-381.5 485,-539.5 769,-539.5 769,-381.5 485,-381.5"/>
</g>
<!-- public.posts -->
<g id="node2" class="node">
<title>public.posts</title>
<polygon fill="#efefef" stroke="transparent" points="262,-222.5 262,-257.5 576,-257.5 576,-222.5 262,-222.5"/>
<polygon fill="none" stroke="#000000" points="262,-222.5 262,-257.5 576,-257.5 576,-222.5 262,-222.5"/>
<text text-anchor="start" x="307.7041" y="-235.3" font-family="Arial Bold" font-size="18.00" fill="#000000">public.posts</text>
<text text-anchor="start" x="402.7279" y="-235.3" font-family="Arial" font-size="14.00" fill="#000000">    </text>
<text text-anchor="start" x="436.9327" y="-235.3" font-family="Arial" font-size="14.00" fill="#666666">[BASE TABLE]</text>
<polygon fill="none" stroke="#000000" points="262,-192.5 262,-222.5 576,-222.5 576,-192.5 262,-192.5"/>
<text text-anchor="start" x="269" y="-203.9" font-family="Arial" font-size="14.00" fill="#000000">postId    </text>
<text text-anchor="start" x="341.3338" y="-203.9" font-family="Arial" font-size="14.00" fill="#666666">[integer]</text>
<polygon fill="none" stroke="#000000" points="262,-162.5 262,-192.5 576,-192.5 576,-162.5 262,-162.5"/>
<text text-anchor="start" x="269" y="-173.9" font-family="Arial" font-size="14.00" fill="#000000">title    </text>
<text text-anchor="start" x="324.9818" y="-173.9" font-family="Arial" font-size="14.00" fill="#666666">[text]</text>
<polygon fill="none" stroke="#000000" points="262,-132.5 262,-162.5 576,-162.5 576,-132.5 262,-132.5"/>
<text text-anchor="start" x="269" y="-143.9" font-family="Arial" font-size="14.00" fill="#000000">content    </text>
<text text-anchor="start" x="349.1164" y="-143.9" font-family="Arial" font-size="14.00" fill="#666666">[text]</text>
<polygon fill="none" stroke="#000000" points="262,-102.5 262,-132.5 576,-132.5 576,-102.5 262,-102.5"/>
<text text-anchor="start" x="269" y="-113.9" font-family="Arial" font-size="14.00" fill="#000000">authorId    </text>
<text text-anchor="start" x="354.5596" y="-113.9" font-family="Arial" font-size="14.00" fill="#666666">[text]</text>
<polygon fill="none" stroke="#000000" points="262,-72.5 262,-102.5 576,-102.5 576,-72.5 262,-72.5"/>
<text text-anchor="start" x="269" y="-83.9" font-family="Arial" font-size="14.00" fill="#000000">createdAt    </text>
<text text-anchor="start" x="363.1136" y="-83.9" font-family="Arial" font-size="14.00" fill="#666666">[timestamp(3) without time zone]</text>
<polygon fill="none" stroke="#000000" points="262,-42.5 262,-72.5 576,-72.5 576,-42.5 262,-42.5"/>
<text text-anchor="start" x="268.8689" y="-53.9" font-family="Arial" font-size="14.00" fill="#000000">updatedAt    </text>
<text text-anchor="start" x="366.8871" y="-53.9" font-family="Arial" font-size="14.00" fill="#666666">[timestamp(3) without time zone]</text>
</g>
<!-- public.bookmarks&#45;&gt;public.posts -->
<g id="edge1" class="edge">
<title>public.bookmarks:postId&#45;&gt;public.posts:postId</title>
<path fill="none" stroke="#000000" d="M476.8231,-456.4089C436.7968,-446.9559 459.1661,-378.2833 487,-337 510.8531,-301.621 552.1469,-336.379 576,-301 599.2306,-266.5442 617.5556,-207.5 576,-207.5"/>
<polygon fill="#000000" stroke="#000000" points="477.057,-456.4339 486.5202,-461.9744 482.0285,-456.9669 487,-457.5 487,-457.5 487,-457.5 482.0285,-456.9669 487.4798,-453.0256 477.057,-456.4339 477.057,-456.4339"/>
<text text-anchor="start" x="7.441" y="-467.5" font-family="Arial" font-size="10.00" fill="#000000">FOREIGN KEY (&quot;postId&quot;) REFERENCES posts(&quot;postId&quot;) ON UPDATE CASCADE ON DELETE SET NULL</text>
</g>
<!-- public.users -->
<g id="node3" class="node">
<title>public.users</title>
<polygon fill="#efefef" stroke="transparent" points="680,-207.5 680,-242.5 994,-242.5 994,-207.5 680,-207.5"/>
<polygon fill="none" stroke="#000000" points="680,-207.5 680,-242.5 994,-242.5 994,-207.5 680,-207.5"/>
<text text-anchor="start" x="725.2091" y="-220.3" font-family="Arial Bold" font-size="18.00" fill="#000000">public.users</text>
<text text-anchor="start" x="821.2229" y="-220.3" font-family="Arial" font-size="14.00" fill="#000000">    </text>
<text text-anchor="start" x="855.4277" y="-220.3" font-family="Arial" font-size="14.00" fill="#666666">[BASE TABLE]</text>
<polygon fill="none" stroke="#000000" points="680,-177.5 680,-207.5 994,-207.5 994,-177.5 680,-177.5"/>
<text text-anchor="start" x="687" y="-188.9" font-family="Arial" font-size="14.00" fill="#000000">userId    </text>
<text text-anchor="start" x="760.1038" y="-188.9" font-family="Arial" font-size="14.00" fill="#666666">[text]</text>
<polygon fill="none" stroke="#000000" points="680,-147.5 680,-177.5 994,-177.5 994,-147.5 680,-147.5"/>
<text text-anchor="start" x="687" y="-158.9" font-family="Arial" font-size="14.00" fill="#000000">userName    </text>
<text text-anchor="start" x="785.763" y="-158.9" font-family="Arial" font-size="14.00" fill="#666666">[text]</text>
<polygon fill="none" stroke="#000000" points="680,-117.5 680,-147.5 994,-147.5 994,-117.5 680,-117.5"/>
<text text-anchor="start" x="687" y="-128.9" font-family="Arial" font-size="14.00" fill="#000000">imageUrl    </text>
<text text-anchor="start" x="777.1936" y="-128.9" font-family="Arial" font-size="14.00" fill="#666666">[varchar(256)]</text>
<polygon fill="none" stroke="#000000" points="680,-87.5 680,-117.5 994,-117.5 994,-87.5 680,-87.5"/>
<text text-anchor="start" x="687" y="-98.9" font-family="Arial" font-size="14.00" fill="#000000">createdAt    </text>
<text text-anchor="start" x="781.1136" y="-98.9" font-family="Arial" font-size="14.00" fill="#666666">[timestamp(3) without time zone]</text>
<polygon fill="none" stroke="#000000" points="680,-57.5 680,-87.5 994,-87.5 994,-57.5 680,-57.5"/>
<text text-anchor="start" x="686.8689" y="-68.9" font-family="Arial" font-size="14.00" fill="#000000">updatedAt    </text>
<text text-anchor="start" x="784.8871" y="-68.9" font-family="Arial" font-size="14.00" fill="#666666">[timestamp(3) without time zone]</text>
</g>
<!-- public.bookmarks&#45;&gt;public.users -->
<g id="edge2" class="edge">
<title>public.bookmarks:userId&#45;&gt;public.users:userId</title>
<path fill="none" stroke="#000000" d="M778.1132,-425.979C804.2892,-416.8292 786.1213,-368.4467 768,-337 745.4299,-297.8331 702.5701,-325.1669 680,-286 659.2518,-249.9948 638.4444,-192.5 680,-192.5"/>
<polygon fill="#000000" stroke="#000000" points="777.8888,-426.0127 767.3307,-423.05 772.9444,-426.7563 768,-427.5 768,-427.5 768,-427.5 772.9444,-426.7563 768.6693,-431.95 777.8888,-426.0127 777.8888,-426.0127"/>
<text text-anchor="start" x="775.3405" y="-437.5" font-family="Arial" font-size="10.00" fill="#000000">FOREIGN KEY (&quot;userId&quot;) REFERENCES users(&quot;userId&quot;) ON UPDATE CASCADE ON DELETE CASCADE</text>
</g>
</g>
</svg>
