<?xml version="1.0" encoding="UTF-8" standalone="no"?>
<!DOCTYPE svg PUBLIC "-//W3C//DTD SVG 1.1//EN"
 "http://www.w3.org/Graphics/SVG/1.1/DTD/svg11.dtd">
<!-- Generated by graphviz version 2.40.1 (20161225.0304)
 -->
<!-- Title: public.users Pages: 1 -->
<svg width="1099pt" height="622pt"
 viewBox="0.00 0.00 1099.00 622.00" xmlns="http://www.w3.org/2000/svg" xmlns:xlink="http://www.w3.org/1999/xlink">
<g id="graph0" class="graph" transform="scale(1 1) rotate(0) translate(4 618)">
<title>public.users</title>
<polygon fill="#ffffff" stroke="transparent" points="-4,4 -4,-618 1095,-618 1095,4 -4,4"/>
<!-- public.users -->
<g id="node1" class="node">
<title>public.users</title>
<polygon fill="#efefef" stroke="transparent" points="407,-195.5 407,-230.5 690,-230.5 690,-195.5 407,-195.5"/>
<polygon fill="none" stroke="#000000" points="407,-195.5 407,-230.5 690,-230.5 690,-195.5 407,-195.5"/>
<text text-anchor="start" x="436.7091" y="-208.3" font-family="Arial Bold" font-size="18.00" fill="#000000">public.users</text>
<text text-anchor="start" x="532.7229" y="-208.3" font-family="Arial" font-size="14.00" fill="#000000">    </text>
<text text-anchor="start" x="566.9277" y="-208.3" font-family="Arial" font-size="14.00" fill="#666666">[BASE TABLE]</text>
<polygon fill="none" stroke="#000000" points="407,-165.5 407,-195.5 690,-195.5 690,-165.5 407,-165.5"/>
<text text-anchor="start" x="414" y="-176.9" font-family="Arial" font-size="14.00" fill="#000000">userId </text>
<text text-anchor="start" x="456.7896" y="-176.9" font-family="Arial" font-size="14.00" fill="#666666">[text]</text>
<polygon fill="none" stroke="#000000" points="407,-135.5 407,-165.5 690,-165.5 690,-135.5 407,-135.5"/>
<text text-anchor="start" x="414" y="-146.9" font-family="Arial" font-size="14.00" fill="#000000">userName </text>
<text text-anchor="start" x="482.4488" y="-146.9" font-family="Arial" font-size="14.00" fill="#666666">[text]</text>
<polygon fill="none" stroke="#000000" points="407,-105.5 407,-135.5 690,-135.5 690,-105.5 407,-105.5"/>
<text text-anchor="start" x="414" y="-116.9" font-family="Arial" font-size="14.00" fill="#000000">imageUrl </text>
<text text-anchor="start" x="473.8794" y="-116.9" font-family="Arial" font-size="14.00" fill="#666666">[varchar(256)]</text>
<polygon fill="none" stroke="#000000" points="407,-75.5 407,-105.5 690,-105.5 690,-75.5 407,-75.5"/>
<text text-anchor="start" x="414" y="-86.9" font-family="Arial" font-size="14.00" fill="#000000">createdAt </text>
<text text-anchor="start" x="477.7994" y="-86.9" font-family="Arial" font-size="14.00" fill="#666666">[timestamp(3) without time zone]</text>
<polygon fill="none" stroke="#000000" points="407,-45.5 407,-75.5 690,-75.5 690,-45.5 407,-45.5"/>
<text text-anchor="start" x="413.526" y="-56.9" font-family="Arial" font-size="14.00" fill="#000000">updatedAt </text>
<text text-anchor="start" x="481.23" y="-56.9" font-family="Arial" font-size="14.00" fill="#666666">[timestamp(3) without time zone]</text>
<polygon fill="none" stroke="#000000" stroke-width="3" points="405,-44.5 405,-232.5 691,-232.5 691,-44.5 405,-44.5"/>
</g>
<!-- public.posts -->
<g id="node2" class="node">
<title>public.posts</title>
<polygon fill="#efefef" stroke="transparent" points="184,-535.5 184,-570.5 498,-570.5 498,-535.5 184,-535.5"/>
<polygon fill="none" stroke="#000000" points="184,-535.5 184,-570.5 498,-570.5 498,-535.5 184,-535.5"/>
<text text-anchor="start" x="229.7041" y="-548.3" font-family="Arial Bold" font-size="18.00" fill="#000000">public.posts</text>
<text text-anchor="start" x="324.7279" y="-548.3" font-family="Arial" font-size="14.00" fill="#000000">    </text>
<text text-anchor="start" x="358.9327" y="-548.3" font-family="Arial" font-size="14.00" fill="#666666">[BASE TABLE]</text>
<polygon fill="none" stroke="#000000" points="184,-505.5 184,-535.5 498,-535.5 498,-505.5 184,-505.5"/>
<text text-anchor="start" x="191" y="-516.9" font-family="Arial" font-size="14.00" fill="#000000">postId    </text>
<text text-anchor="start" x="263.3338" y="-516.9" font-family="Arial" font-size="14.00" fill="#666666">[integer]</text>
<polygon fill="none" stroke="#000000" points="184,-475.5 184,-505.5 498,-505.5 498,-475.5 184,-475.5"/>
<text text-anchor="start" x="191" y="-486.9" font-family="Arial" font-size="14.00" fill="#000000">title    </text>
<text text-anchor="start" x="246.9818" y="-486.9" font-family="Arial" font-size="14.00" fill="#666666">[text]</text>
<polygon fill="none" stroke="#000000" points="184,-445.5 184,-475.5 498,-475.5 498,-445.5 184,-445.5"/>
<text text-anchor="start" x="191" y="-456.9" font-family="Arial" font-size="14.00" fill="#000000">content    </text>
<text text-anchor="start" x="271.1164" y="-456.9" font-family="Arial" font-size="14.00" fill="#666666">[text]</text>
<polygon fill="none" stroke="#000000" points="184,-415.5 184,-445.5 498,-445.5 498,-415.5 184,-415.5"/>
<text text-anchor="start" x="191" y="-426.9" font-family="Arial" font-size="14.00" fill="#000000">authorId    </text>
<text text-anchor="start" x="276.5596" y="-426.9" font-family="Arial" font-size="14.00" fill="#666666">[text]</text>
<polygon fill="none" stroke="#000000" points="184,-385.5 184,-415.5 498,-415.5 498,-385.5 184,-385.5"/>
<text text-anchor="start" x="191" y="-396.9" font-family="Arial" font-size="14.00" fill="#000000">createdAt    </text>
<text text-anchor="start" x="285.1136" y="-396.9" font-family="Arial" font-size="14.00" fill="#666666">[timestamp(3) without time zone]</text>
<polygon fill="none" stroke="#000000" points="184,-355.5 184,-385.5 498,-385.5 498,-355.5 184,-355.5"/>
<text text-anchor="start" x="190.8689" y="-366.9" font-family="Arial" font-size="14.00" fill="#000000">updatedAt    </text>
<text text-anchor="start" x="288.8871" y="-366.9" font-family="Arial" font-size="14.00" fill="#666666">[timestamp(3) without time zone]</text>
</g>
<!-- public.posts&#45;&gt;public.users -->
<g id="edge1" class="edge">
<title>public.posts:authorId&#45;&gt;public.users:userId</title>
<path fill="none" stroke="#000000" d="M508.4148,-429.3151C546.7927,-419.6407 525.1803,-352.9825 498,-313 473.5476,-277.0301 431.4524,-312.9699 407,-277 382.8879,-241.5308 364.1111,-180.5 407,-180.5"/>
<polygon fill="#000000" stroke="#000000" points="507.9359,-429.3695 497.4913,-426.0288 502.968,-429.9347 498,-430.5 498,-430.5 498,-430.5 502.968,-429.9347 498.5087,-434.9712 507.9359,-429.3695 507.9359,-429.3695"/>
<text text-anchor="start" x="6.892" y="-440.5" font-family="Arial" font-size="10.00" fill="#000000">FOREIGN KEY (&quot;authorId&quot;) REFERENCES users(&quot;userId&quot;) ON UPDATE CASCADE ON DELETE CASCADE</text>
</g>
<!-- public.bookmarks -->
<g id="node3" class="node">
<title>public.bookmarks</title>
<polygon fill="#efefef" stroke="transparent" points="602,-505.5 602,-540.5 912,-540.5 912,-505.5 602,-505.5"/>
<polygon fill="none" stroke="#000000" points="602,-505.5 602,-540.5 912,-540.5 912,-505.5 602,-505.5"/>
<text text-anchor="start" x="623.2068" y="-518.3" font-family="Arial Bold" font-size="18.00" fill="#000000">public.bookmarks</text>
<text text-anchor="start" x="763.2252" y="-518.3" font-family="Arial" font-size="14.00" fill="#000000">    </text>
<text text-anchor="start" x="797.43" y="-518.3" font-family="Arial" font-size="14.00" fill="#666666">[BASE TABLE]</text>
<polygon fill="none" stroke="#000000" points="602,-475.5 602,-505.5 912,-505.5 912,-475.5 602,-475.5"/>
<text text-anchor="start" x="609" y="-486.9" font-family="Arial" font-size="14.00" fill="#000000">bookmarkId    </text>
<text text-anchor="start" x="716.3296" y="-486.9" font-family="Arial" font-size="14.00" fill="#666666">[integer]</text>
<polygon fill="none" stroke="#000000" points="602,-445.5 602,-475.5 912,-475.5 912,-445.5 602,-445.5"/>
<text text-anchor="start" x="609" y="-456.9" font-family="Arial" font-size="14.00" fill="#000000">postId    </text>
<text text-anchor="start" x="681.3338" y="-456.9" font-family="Arial" font-size="14.00" fill="#666666">[integer]</text>
<polygon fill="none" stroke="#000000" points="602,-415.5 602,-445.5 912,-445.5 912,-415.5 602,-415.5"/>
<text text-anchor="start" x="609" y="-426.9" font-family="Arial" font-size="14.00" fill="#000000">userId    </text>
<text text-anchor="start" x="682.1038" y="-426.9" font-family="Arial" font-size="14.00" fill="#666666">[text]</text>
<polygon fill="none" stroke="#000000" points="602,-385.5 602,-415.5 912,-415.5 912,-385.5 602,-385.5"/>
<text text-anchor="start" x="608.8212" y="-396.9" font-family="Arial" font-size="14.00" fill="#000000">createdAt    </text>
<text text-anchor="start" x="702.9348" y="-396.9" font-family="Arial" font-size="14.00" fill="#666666">[timestamp(3) without time zone]</text>
</g>
<!-- public.bookmarks&#45;&gt;public.users -->
<g id="edge2" class="edge">
<title>public.bookmarks:userId&#45;&gt;public.users:userId</title>
<path fill="none" stroke="#000000" d="M591.9521,-428.9427C567.4354,-419.9769 586.3747,-374.2506 602,-343 623.8638,-299.2724 668.1362,-320.7276 690,-277 709.1805,-238.639 732.8889,-180.5 690,-180.5"/>
<polygon fill="#000000" stroke="#000000" points="592.118,-428.9683 601.3107,-434.9469 597.059,-429.7342 602,-430.5 602,-430.5 602,-430.5 597.059,-429.7342 602.6893,-426.0531 592.118,-428.9683 592.118,-428.9683"/>
<text text-anchor="start" x="609.3405" y="-440.5" font-family="Arial" font-size="10.00" fill="#000000">FOREIGN KEY (&quot;userId&quot;) REFERENCES users(&quot;userId&quot;) ON UPDATE CASCADE ON DELETE CASCADE</text>
</g>
</g>
</svg>
