<?xml version="1.0" encoding="UTF-8" standalone="no"?>
<!DOCTYPE svg PUBLIC "-//W3C//DTD SVG 1.1//EN"
 "http://www.w3.org/Graphics/SVG/1.1/DTD/svg11.dtd">
<!-- Generated by graphviz version 2.40.1 (20161225.0304)
 -->
<!-- Title: mydb Pages: 1 -->
<svg width="1302pt" height="1013pt"
 viewBox="0.00 0.00 1302.00 1013.00" xmlns="http://www.w3.org/2000/svg" xmlns:xlink="http://www.w3.org/1999/xlink">
<g id="graph0" class="graph" transform="scale(1 1) rotate(0) translate(4 1009)">
<title>mydb</title>
<polygon fill="#ffffff" stroke="transparent" points="-4,4 -4,-1009 1298,-1009 1298,4 -4,4"/>
<!-- public._prisma_migrations -->
<g id="node1" class="node">
<title>public._prisma_migrations</title>
<polygon fill="#efefef" stroke="transparent" points="43,-926.5 43,-961.5 393,-961.5 393,-926.5 43,-926.5"/>
<polygon fill="none" stroke="#000000" points="43,-926.5 43,-961.5 393,-961.5 393,-926.5 43,-926.5"/>
<text text-anchor="start" x="49.7098" y="-939.3" font-family="Arial Bold" font-size="18.00" fill="#000000">public._prisma_migrations</text>
<text text-anchor="start" x="258.7222" y="-939.3" font-family="Arial" font-size="14.00" fill="#000000">    </text>
<text text-anchor="start" x="292.927" y="-939.3" font-family="Arial" font-size="14.00" fill="#666666">[BASE TABLE]</text>
<polygon fill="none" stroke="#000000" points="43,-896.5 43,-926.5 393,-926.5 393,-896.5 43,-896.5"/>
<text text-anchor="start" x="50" y="-907.9" font-family="Arial" font-size="14.00" fill="#000000">id    </text>
<text text-anchor="start" x="95.094" y="-907.9" font-family="Arial" font-size="14.00" fill="#666666">[varchar(36)]</text>
<polygon fill="none" stroke="#000000" points="43,-866.5 43,-896.5 393,-896.5 393,-866.5 43,-866.5"/>
<text text-anchor="start" x="50" y="-877.9" font-family="Arial" font-size="14.00" fill="#000000">checksum    </text>
<text text-anchor="start" x="147.2132" y="-877.9" font-family="Arial" font-size="14.00" fill="#666666">[varchar(64)]</text>
<polygon fill="none" stroke="#000000" points="43,-836.5 43,-866.5 393,-866.5 393,-836.5 43,-836.5"/>
<text text-anchor="start" x="50" y="-847.9" font-family="Arial" font-size="14.00" fill="#000000">finished_at    </text>
<text text-anchor="start" x="151.8948" y="-847.9" font-family="Arial" font-size="14.00" fill="#666666">[timestamp with time zone]</text>
<polygon fill="none" stroke="#000000" points="43,-806.5 43,-836.5 393,-836.5 393,-806.5 43,-806.5"/>
<text text-anchor="start" x="50" y="-817.9" font-family="Arial" font-size="14.00" fill="#000000">migration_name    </text>
<text text-anchor="start" x="184.5512" y="-817.9" font-family="Arial" font-size="14.00" fill="#666666">[varchar(255)]</text>
<polygon fill="none" stroke="#000000" points="43,-776.5 43,-806.5 393,-806.5 393,-776.5 43,-776.5"/>
<text text-anchor="start" x="50" y="-787.9" font-family="Arial" font-size="14.00" fill="#000000">logs    </text>
<text text-anchor="start" x="109.8766" y="-787.9" font-family="Arial" font-size="14.00" fill="#666666">[text]</text>
<polygon fill="none" stroke="#000000" points="43,-746.5 43,-776.5 393,-776.5 393,-746.5 43,-746.5"/>
<text text-anchor="start" x="50" y="-757.9" font-family="Arial" font-size="14.00" fill="#000000">rolled_back_at    </text>
<text text-anchor="start" x="175.23" y="-757.9" font-family="Arial" font-size="14.00" fill="#666666">[timestamp with time zone]</text>
<polygon fill="none" stroke="#000000" points="43,-716.5 43,-746.5 393,-746.5 393,-716.5 43,-716.5"/>
<text text-anchor="start" x="50" y="-727.9" font-family="Arial" font-size="14.00" fill="#000000">started_at    </text>
<text text-anchor="start" x="146.4502" y="-727.9" font-family="Arial" font-size="14.00" fill="#666666">[timestamp with time zone]</text>
<polygon fill="none" stroke="#000000" points="43,-686.5 43,-716.5 393,-716.5 393,-686.5 43,-686.5"/>
<text text-anchor="start" x="50" y="-697.9" font-family="Arial" font-size="14.00" fill="#000000">applied_steps_count    </text>
<text text-anchor="start" x="212.5904" y="-697.9" font-family="Arial" font-size="14.00" fill="#666666">[integer]</text>
</g>
<!-- public.users -->
<g id="node2" class="node">
<title>public.users</title>
<polygon fill="#efefef" stroke="transparent" points="495,-192.5 495,-227.5 809,-227.5 809,-192.5 495,-192.5"/>
<polygon fill="none" stroke="#000000" points="495,-192.5 495,-227.5 809,-227.5 809,-192.5 495,-192.5"/>
<text text-anchor="start" x="540.2091" y="-205.3" font-family="Arial Bold" font-size="18.00" fill="#000000">public.users</text>
<text text-anchor="start" x="636.2229" y="-205.3" font-family="Arial" font-size="14.00" fill="#000000">    </text>
<text text-anchor="start" x="670.4277" y="-205.3" font-family="Arial" font-size="14.00" fill="#666666">[BASE TABLE]</text>
<polygon fill="none" stroke="#000000" points="495,-162.5 495,-192.5 809,-192.5 809,-162.5 495,-162.5"/>
<text text-anchor="start" x="502" y="-173.9" font-family="Arial" font-size="14.00" fill="#000000">userId    </text>
<text text-anchor="start" x="575.1038" y="-173.9" font-family="Arial" font-size="14.00" fill="#666666">[text]</text>
<polygon fill="none" stroke="#000000" points="495,-132.5 495,-162.5 809,-162.5 809,-132.5 495,-132.5"/>
<text text-anchor="start" x="502" y="-143.9" font-family="Arial" font-size="14.00" fill="#000000">userName    </text>
<text text-anchor="start" x="600.763" y="-143.9" font-family="Arial" font-size="14.00" fill="#666666">[text]</text>
<polygon fill="none" stroke="#000000" points="495,-102.5 495,-132.5 809,-132.5 809,-102.5 495,-102.5"/>
<text text-anchor="start" x="502" y="-113.9" font-family="Arial" font-size="14.00" fill="#000000">imageUrl    </text>
<text text-anchor="start" x="592.1936" y="-113.9" font-family="Arial" font-size="14.00" fill="#666666">[varchar(256)]</text>
<polygon fill="none" stroke="#000000" points="495,-72.5 495,-102.5 809,-102.5 809,-72.5 495,-72.5"/>
<text text-anchor="start" x="502" y="-83.9" font-family="Arial" font-size="14.00" fill="#000000">createdAt    </text>
<text text-anchor="start" x="596.1136" y="-83.9" font-family="Arial" font-size="14.00" fill="#666666">[timestamp(3) without time zone]</text>
<polygon fill="none" stroke="#000000" points="495,-42.5 495,-72.5 809,-72.5 809,-42.5 495,-42.5"/>
<text text-anchor="start" x="501.8689" y="-53.9" font-family="Arial" font-size="14.00" fill="#000000">updatedAt    </text>
<text text-anchor="start" x="599.8871" y="-53.9" font-family="Arial" font-size="14.00" fill="#666666">[timestamp(3) without time zone]</text>
</g>
<!-- public.posts -->
<g id="node3" class="node">
<title>public.posts</title>
<polygon fill="#efefef" stroke="transparent" points="609,-529.5 609,-564.5 923,-564.5 923,-529.5 609,-529.5"/>
<polygon fill="none" stroke="#000000" points="609,-529.5 609,-564.5 923,-564.5 923,-529.5 609,-529.5"/>
<text text-anchor="start" x="654.7041" y="-542.3" font-family="Arial Bold" font-size="18.00" fill="#000000">public.posts</text>
<text text-anchor="start" x="749.7279" y="-542.3" font-family="Arial" font-size="14.00" fill="#000000">    </text>
<text text-anchor="start" x="783.9327" y="-542.3" font-family="Arial" font-size="14.00" fill="#666666">[BASE TABLE]</text>
<polygon fill="none" stroke="#000000" points="609,-499.5 609,-529.5 923,-529.5 923,-499.5 609,-499.5"/>
<text text-anchor="start" x="616" y="-510.9" font-family="Arial" font-size="14.00" fill="#000000">postId    </text>
<text text-anchor="start" x="688.3338" y="-510.9" font-family="Arial" font-size="14.00" fill="#666666">[integer]</text>
<polygon fill="none" stroke="#000000" points="609,-469.5 609,-499.5 923,-499.5 923,-469.5 609,-469.5"/>
<text text-anchor="start" x="616" y="-480.9" font-family="Arial" font-size="14.00" fill="#000000">title    </text>
<text text-anchor="start" x="671.9818" y="-480.9" font-family="Arial" font-size="14.00" fill="#666666">[text]</text>
<polygon fill="none" stroke="#000000" points="609,-439.5 609,-469.5 923,-469.5 923,-439.5 609,-439.5"/>
<text text-anchor="start" x="616" y="-450.9" font-family="Arial" font-size="14.00" fill="#000000">content    </text>
<text text-anchor="start" x="696.1164" y="-450.9" font-family="Arial" font-size="14.00" fill="#666666">[text]</text>
<polygon fill="none" stroke="#000000" points="609,-409.5 609,-439.5 923,-439.5 923,-409.5 609,-409.5"/>
<text text-anchor="start" x="616" y="-420.9" font-family="Arial" font-size="14.00" fill="#000000">authorId    </text>
<text text-anchor="start" x="701.5596" y="-420.9" font-family="Arial" font-size="14.00" fill="#666666">[text]</text>
<polygon fill="none" stroke="#000000" points="609,-379.5 609,-409.5 923,-409.5 923,-379.5 609,-379.5"/>
<text text-anchor="start" x="616" y="-390.9" font-family="Arial" font-size="14.00" fill="#000000">createdAt    </text>
<text text-anchor="start" x="710.1136" y="-390.9" font-family="Arial" font-size="14.00" fill="#666666">[timestamp(3) without time zone]</text>
<polygon fill="none" stroke="#000000" points="609,-349.5 609,-379.5 923,-379.5 923,-349.5 609,-349.5"/>
<text text-anchor="start" x="615.8689" y="-360.9" font-family="Arial" font-size="14.00" fill="#000000">updatedAt    </text>
<text text-anchor="start" x="713.8871" y="-360.9" font-family="Arial" font-size="14.00" fill="#666666">[timestamp(3) without time zone]</text>
</g>
<!-- public.posts&#45;&gt;public.users -->
<g id="edge1" class="edge">
<title>public.posts:authorId&#45;&gt;public.users:userId</title>
<path fill="none" stroke="#000000" d="M599.0171,-423.3914C559.4841,-413.7954 577.8587,-344.2472 609,-307 666.9317,-237.7096 751.0683,-340.2904 809,-271 835.6547,-239.1191 850.5556,-177.5 809,-177.5"/>
<polygon fill="#000000" stroke="#000000" points="599.0611,-423.3962 608.5033,-428.9725 604.0305,-423.9481 609,-424.5 609,-424.5 609,-424.5 604.0305,-423.9481 609.4967,-420.0275 599.0611,-423.3962 599.0611,-423.3962"/>
<text text-anchor="start" x="117.892" y="-434.5" font-family="Arial" font-size="10.00" fill="#000000">FOREIGN KEY (&quot;authorId&quot;) REFERENCES users(&quot;userId&quot;) ON UPDATE CASCADE ON DELETE CASCADE</text>
</g>
<!-- public.bookmarks -->
<g id="node4" class="node">
<title>public.bookmarks</title>
<polygon fill="#efefef" stroke="transparent" points="497,-866.5 497,-901.5 807,-901.5 807,-866.5 497,-866.5"/>
<polygon fill="none" stroke="#000000" points="497,-866.5 497,-901.5 807,-901.5 807,-866.5 497,-866.5"/>
<text text-anchor="start" x="518.2068" y="-879.3" font-family="Arial Bold" font-size="18.00" fill="#000000">public.bookmarks</text>
<text text-anchor="start" x="658.2252" y="-879.3" font-family="Arial" font-size="14.00" fill="#000000">    </text>
<text text-anchor="start" x="692.43" y="-879.3" font-family="Arial" font-size="14.00" fill="#666666">[BASE TABLE]</text>
<polygon fill="none" stroke="#000000" points="497,-836.5 497,-866.5 807,-866.5 807,-836.5 497,-836.5"/>
<text text-anchor="start" x="504" y="-847.9" font-family="Arial" font-size="14.00" fill="#000000">bookmarkId    </text>
<text text-anchor="start" x="611.3296" y="-847.9" font-family="Arial" font-size="14.00" fill="#666666">[integer]</text>
<polygon fill="none" stroke="#000000" points="497,-806.5 497,-836.5 807,-836.5 807,-806.5 497,-806.5"/>
<text text-anchor="start" x="504" y="-817.9" font-family="Arial" font-size="14.00" fill="#000000">postId    </text>
<text text-anchor="start" x="576.3338" y="-817.9" font-family="Arial" font-size="14.00" fill="#666666">[integer]</text>
<polygon fill="none" stroke="#000000" points="497,-776.5 497,-806.5 807,-806.5 807,-776.5 497,-776.5"/>
<text text-anchor="start" x="504" y="-787.9" font-family="Arial" font-size="14.00" fill="#000000">userId    </text>
<text text-anchor="start" x="577.1038" y="-787.9" font-family="Arial" font-size="14.00" fill="#666666">[text]</text>
<polygon fill="none" stroke="#000000" points="497,-746.5 497,-776.5 807,-776.5 807,-746.5 497,-746.5"/>
<text text-anchor="start" x="503.8212" y="-757.9" font-family="Arial" font-size="14.00" fill="#000000">createdAt    </text>
<text text-anchor="start" x="597.9348" y="-757.9" font-family="Arial" font-size="14.00" fill="#666666">[timestamp(3) without time zone]</text>
</g>
<!-- public.bookmarks&#45;&gt;public.users -->
<g id="edge3" class="edge">
<title>public.bookmarks:userId&#45;&gt;public.users:userId</title>
<path fill="none" stroke="#000000" d="M487.4806,-787.2513C428.7495,-733.003 430.1086,-177.5 495,-177.5"/>
<polygon fill="#000000" stroke="#000000" points="487.8682,-787.4243 495.1659,-795.6093 492.4341,-789.4621 497,-791.5 497,-791.5 497,-791.5 492.4341,-789.4621 498.8341,-787.3907 487.8682,-787.4243 487.8682,-787.4243"/>
<text text-anchor="start" x="504.3405" y="-801.5" font-family="Arial" font-size="10.00" fill="#000000">FOREIGN KEY (&quot;userId&quot;) REFERENCES users(&quot;userId&quot;) ON UPDATE CASCADE ON DELETE CASCADE</text>
</g>
<!-- public.bookmarks&#45;&gt;public.posts -->
<g id="edge2" class="edge">
<title>public.bookmarks:postId&#45;&gt;public.posts:postId</title>
<path fill="none" stroke="#000000" d="M817.3898,-820.3314C855.5682,-810.7873 832.6675,-744.9701 807,-704 755.0783,-621.1231 660.9217,-690.8769 609,-608 586.9378,-572.7846 567.4444,-514.5 609,-514.5"/>
<polygon fill="#000000" stroke="#000000" points="816.9373,-820.3822 806.497,-817.0282 811.9687,-820.9411 807,-821.5 807,-821.5 807,-821.5 811.9687,-820.9411 807.503,-825.9718 816.9373,-820.3822 816.9373,-820.3822"/>
<text text-anchor="start" x="814.441" y="-831.5" font-family="Arial" font-size="10.00" fill="#000000">FOREIGN KEY (&quot;postId&quot;) REFERENCES posts(&quot;postId&quot;) ON UPDATE CASCADE ON DELETE SET NULL</text>
</g>
</g>
</svg>
